<svg width="141" height="141" viewBox="0 0 141 141" fill="none" xmlns="http://www.w3.org/2000/svg">
<path fill-rule="evenodd" clip-rule="evenodd" d="M140.071 121.933L140.071 140.194L70.0713 140.194L70.0713 128.02L0.07158 128.02L0.0715806 121.933L140.071 121.933ZM70.0713 115.847L70.0713 103.673L140.071 103.673L140.071 97.5859L0.0715827 97.5859L0.0715811 115.847L70.0713 115.847ZM140.071 73.2372L140.071 91.498L70.0712 91.498L70.0712 79.3241L0.0715843 79.3241L0.0715848 73.2372L140.071 73.2372ZM70.0712 67.1508L70.0713 54.977L140.071 54.977L140.071 48.89L0.071587 48.89L0.0715854 67.1508L70.0712 67.1508ZM140.071 24.542L140.071 42.8027L70.0713 42.8027L70.0713 30.6294L0.0715733 30.6294L0.0715738 24.542L140.071 24.542ZM70.0713 6.28074L70.0713 18.4546L0.0715744 18.4546L0.071576 0.193805L140.071 0.193817L140.071 6.28075L70.0713 6.28074Z" fill="url(#paint0_linear_572_12721)"/>
<defs>
<linearGradient id="paint0_linear_572_12721" x1="131.524" y1="-128.955" x2="-67.6383" y2="28.799" gradientUnits="userSpaceOnUse">
<stop stop-color="#8800FF"/>
<stop offset="1" stop-color="#CDAAFF"/>
</linearGradient>
</defs>
</svg>
