<svg width="20" height="11" viewBox="0 0 20 11" fill="none" xmlns="http://www.w3.org/2000/svg">
<path id="Vector" d="M18.2805 0.042223C18.0618 0.0473932 17.8541 0.138768 17.7024 0.296443L9.99811 8.00077L2.29378 0.296443C2.21652 0.217025 2.12413 0.153897 2.02206 0.110789C1.91999 0.0676813 1.81032 0.045468 1.69952 0.0454615C1.53459 0.0455049 1.37343 0.0947327 1.23663 0.186851C1.09983 0.27897 0.993607 0.409794 0.931546 0.562598C0.869486 0.715401 0.854406 0.883242 0.888235 1.04466C0.922063 1.20608 1.00326 1.35374 1.12145 1.46877L9.41195 9.75927C9.56743 9.91468 9.77827 10.002 9.99811 10.002C10.218 10.002 10.4288 9.91468 10.5843 9.75927L18.8748 1.46877C18.9952 1.35299 19.0778 1.20355 19.1118 1.04001C19.1458 0.87648 19.1297 0.706482 19.0655 0.552289C19.0012 0.398097 18.8919 0.2669 18.7518 0.175885C18.6118 0.0848706 18.4475 0.0382824 18.2805 0.042223Z" fill="white"/>
</svg>
