<svg width="141" height="141" viewBox="0 0 141 141" fill="none" xmlns="http://www.w3.org/2000/svg">
<path fill-rule="evenodd" clip-rule="evenodd" d="M138.903 49.4946L117.807 70.5905V92.2483H138.903V49.4946ZM2.73788 90.8924L23.8338 69.7965V48.1387H2.73788V90.8924ZM46.8473 138.276V117.18H25.1895L4.09357 138.276H46.8473ZM92.8751 138.276V117.18H71.2173L50.1214 138.276H92.8751ZM94.7935 117.18V136.92L114.533 117.18H94.7935ZM117.807 113.906L137.547 94.166H117.807V113.906ZM94.7935 115.262H115.889V94.166H94.7935V115.262ZM96.1495 92.2478H115.89V72.5078L96.1495 92.2478ZM115.889 48.1387H94.7935V90.8924L115.889 69.7965V48.1387ZM117.807 48.1387V67.8787L137.547 48.1387H117.807ZM117.807 24.5632V46.2211H138.903V3.46736L117.807 24.5632ZM94.7935 2.11129V23.2072H116.451L137.547 2.11129H94.7935ZM48.7657 2.11129V23.2072H70.4235L91.5194 2.11129H48.7657ZM46.848 23.2074V3.46736L27.108 23.2074H46.848ZM23.8336 26.481L4.09357 46.221H23.8336V26.481ZM25.752 46.2209H46.8478V25.125H25.752V46.2209ZM45.492 48.1387H25.752V67.8787L45.492 48.1387ZM25.752 92.2483H46.8478V49.4946L25.752 70.5905V92.2483ZM23.8336 92.2478V72.5078L4.09358 92.2478H23.8336ZM23.8337 115.824V94.166H2.73785V136.92L23.8337 115.824ZM45.492 94.166H25.752V113.906L45.492 94.166ZM46.848 95.522L27.108 115.262H46.848V95.522ZM73.1351 115.262H92.8751V95.522L73.1351 115.262ZM48.7657 92.2483H92.8753V48.1387H48.7657V92.2483ZM96.1495 46.221H115.89V26.481L96.1495 46.221ZM94.7935 44.865L114.533 25.125H94.7935V44.865ZM68.5057 25.125H48.7657V44.865L68.5057 25.125ZM92.8751 23.2074V3.46736L73.1351 23.2074H92.8751ZM71.2173 25.125L50.1214 46.2209H92.8751V25.125H71.2173ZM48.7657 117.18V136.92L68.5057 117.18H48.7657ZM70.4235 115.262L91.5194 94.166H48.7657V115.262H70.4235ZM0.820315 139.234V47.1797C0.819676 46.9246 0.92132 46.6804 1.10223 46.5001L47.1277 0.47528C47.3073 0.294367 47.5522 0.192723 47.8066 0.193362H139.861C140.391 0.192723 140.82 0.621673 140.82 1.15099V1.15227V93.2071C140.821 93.4615 140.719 93.7063 140.538 93.886L94.5129 139.911C94.3333 140.092 94.0884 140.194 93.834 140.193H1.77922C1.2499 140.194 0.820955 139.765 0.820315 139.236V139.234Z" fill="url(#paint0_linear_572_12729)"/>
<defs>
<linearGradient id="paint0_linear_572_12729" x1="76.154" y1="-28.2293" x2="-13.8366" y2="52.0888" gradientUnits="userSpaceOnUse">
<stop stop-color="#00C0FF"/>
<stop offset="1" stop-color="#C3D7FF"/>
</linearGradient>
</defs>
</svg>
