<svg width="130" height="44" viewBox="0 0 130 44" fill="none" xmlns="http://www.w3.org/2000/svg">
<g id="Group 19321">
<g id="Group 19333">
<g id="The Global NFT Summi">
<path d="M57.6368 38C61.0732 38 63.3933 36.2052 63.3933 33.3379C63.3933 27.275 55.3386 29.8577 55.3386 26.6621C55.3386 25.7647 56.1484 25.1518 57.4398 25.1518C58.9063 25.1518 59.8256 25.9398 59.935 27.1436H63.065C62.9774 24.2326 60.7449 22.3283 57.4398 22.3283C54.3317 22.3283 52.143 24.1231 52.143 26.6621C52.143 32.6813 60.0882 30.383 60.0882 33.3817C60.0882 34.5417 59.1033 35.1546 57.6368 35.1546C56.0171 35.1546 54.9884 34.1696 54.857 32.6156H51.7052C51.8365 35.8769 54.1566 38 57.6368 38Z" fill="white"/>
<path d="M75.585 26.7934H72.5207V32.8345C72.5207 34.2353 71.5795 35.2859 70.2444 35.2859C68.9968 35.2859 68.1212 34.3228 68.1212 32.9877V26.7934H65.0788V33.6662C65.0788 36.1833 66.6985 38 69.1719 38C70.6821 38 71.9078 37.3434 72.5207 36.2927V37.8249H75.585V26.7934Z" fill="white"/>
<path d="M77.8177 37.8249H80.882V31.565C80.882 30.1423 81.6919 29.2011 82.9613 29.2011C84.1433 29.2011 84.8875 30.1423 84.8875 31.565V37.8249H87.9518V31.565C87.9518 30.1423 88.7616 29.2011 90.0311 29.2011C91.2131 29.2011 91.9791 30.1423 91.9791 31.565V37.8249H95.0215V30.6019C95.0215 28.3912 93.4675 26.6183 91.0598 26.6183C89.2869 26.6183 87.908 27.5595 87.3827 28.632C86.8574 27.3187 85.7411 26.6183 84.012 26.6183C82.5236 26.6183 81.473 27.3406 80.882 28.3475V26.7934H77.8177V37.8249Z" fill="white"/>
<path d="M97.2474 37.8249H100.312V31.565C100.312 30.1423 101.122 29.2011 102.391 29.2011C103.573 29.2011 104.317 30.1423 104.317 31.565V37.8249H107.381V31.565C107.381 30.1423 108.191 29.2011 109.461 29.2011C110.643 29.2011 111.409 30.1423 111.409 31.565V37.8249H114.451V30.6019C114.451 28.3912 112.897 26.6183 110.49 26.6183C108.717 26.6183 107.338 27.5595 106.812 28.632C106.287 27.3187 105.171 26.6183 103.442 26.6183C101.953 26.6183 100.903 27.3406 100.312 28.3475V26.7934H97.2474V37.8249Z" fill="white"/>
<path d="M116.59 22V25.2175H119.829V22H116.59ZM116.677 37.8249H119.741V26.7934H116.677V37.8249Z" fill="white"/>
<path d="M123.401 23.5321V26.7934H121.278V29.3324H123.401V33.8194C123.401 36.3803 125.042 37.8249 127.581 37.8249H129.398V35.264H127.997C127.012 35.264 126.443 34.7606 126.443 33.6881V29.3324H129.398V26.7934H126.443V23.5321H123.401Z" fill="white"/>
</g>
<g id="nft" filter="url(#filter0_f_572_12615)">
<path d="M6.92456 37.8249H10.2077V27.6908L16.3582 37.8249H19.8603V22.5034H16.5771V32.6375L10.4266 22.5034H6.92456V37.8249Z" fill="#01FFFC"/>
<path d="M22.6992 37.8249H25.9824V31.5869H31.6732V28.7414H25.9824V25.3269H33.1178V22.5034H22.6992V37.8249Z" fill="#01FFFC"/>
<path d="M38.5721 37.8249H41.8553V25.3269H46.3861V22.5034H34.0413V25.3269H38.5721V37.8249Z" fill="#01FFFC"/>
</g>
<g id="nft_2">
<path d="M6.92456 37.8249H10.2077V27.6908L16.3582 37.8249H19.8603V22.5034H16.5771V32.6375L10.4266 22.5034H6.92456V37.8249Z" fill="#01FFFC"/>
<path d="M22.6992 37.8249H25.9824V31.5869H31.6732V28.7414H25.9824V25.3269H33.1178V22.5034H22.6992V37.8249Z" fill="#01FFFC"/>
<path d="M38.5721 37.8249H41.8553V25.3269H46.3861V22.5034H34.0413V25.3269H38.5721V37.8249Z" fill="#01FFFC"/>
</g>
<g id="The Global NFT Summi_2">
<path d="M11.4553 15.8249H14.7385V3.32695H19.2693V0.50342H6.92456V3.32695H11.4553V15.8249Z" fill="white"/>
<path d="M20.7375 15.8249H23.7799V9.78386C23.7799 8.36115 24.7211 7.33242 26.0562 7.33242C27.3257 7.33242 28.2012 8.29549 28.2012 9.63064V15.8249H31.2436V8.95212C31.2436 6.41313 29.6239 4.61833 27.1506 4.61833C25.6185 4.61833 24.4146 5.25308 23.7799 6.32558V0H20.7375V15.8249Z" fill="white"/>
<path d="M40.849 12.0821C40.6082 13.0233 39.7984 13.5048 38.5726 13.5048C37.0405 13.5048 36.0555 12.5417 35.8367 10.9877H43.7601C43.7819 10.7469 43.8038 10.4186 43.8038 10.0027C43.8038 7.48564 42.2498 4.61833 38.3538 4.61833C34.6109 4.61833 32.9037 7.48564 32.9037 10.2873C32.9037 13.067 34.8298 16 38.5726 16C41.2867 16 43.388 14.4679 43.8257 12.0821H40.849ZM38.3538 6.85089C39.8202 6.85089 40.6739 7.83584 40.7614 9.06156H35.8804C36.1431 7.52941 36.9748 6.85089 38.3538 6.85089Z" fill="white"/>
<path d="M57.2597 16C59.2296 16 60.8493 14.9932 61.3527 13.4829V15.8249H64.2638V9.91518C64.2638 8.58003 63.2132 7.44186 61.7905 7.44186H57.6318V9.91518H60.5867C60.9588 9.91518 61.1995 10.156 61.1995 10.528C61.1995 11.9508 59.3172 13.3297 57.4129 13.3297C54.8739 13.3297 52.8603 11.3379 52.8603 8.16416C52.8603 4.99042 54.8739 3.15185 57.4786 3.15185C59.4485 3.15185 60.8055 4.22435 61.0463 5.86594H64.3076C64.1106 2.58276 61.3527 0.328318 57.5005 0.328318C53.4512 0.328318 49.7303 2.93297 49.7303 8.16416C49.7303 13.3953 53.3418 16 57.2597 16Z" fill="white"/>
<path d="M66.6079 15.8249H69.6503V0H66.6079V15.8249Z" fill="white"/>
<path d="M77.3074 16C80.7 16 83.1296 13.5923 83.1296 10.3092C83.1296 7.02599 80.7 4.61833 77.3074 4.61833C73.9148 4.61833 71.4852 7.02599 71.4852 10.3092C71.4852 13.5923 73.9148 16 77.3074 16ZM77.3074 13.3735C75.6658 13.3735 74.5495 12.1259 74.5495 10.3092C74.5495 8.47059 75.6658 7.22298 77.3074 7.22298C78.949 7.22298 80.0653 8.47059 80.0653 10.3092C80.0653 12.1259 78.949 13.3735 77.3074 13.3735Z" fill="white"/>
<path d="M91.0318 16C94.293 16 96.2411 13.7456 96.2411 10.3092C96.2411 6.87278 94.293 4.61833 91.0755 4.61833C89.6966 4.61833 88.6241 5.14364 88.0112 5.95349V0H84.9688V15.8249H88.0112V14.6211C88.6241 15.4747 89.7623 16 91.0318 16ZM90.5502 13.3735C88.9086 13.3735 87.8361 12.1477 87.8361 10.3092C87.8361 8.4487 88.9086 7.22298 90.5502 7.22298C92.148 7.22298 93.2424 8.4487 93.2424 10.3092C93.2424 12.1477 92.148 13.3735 90.5502 13.3735Z" fill="white"/>
<path d="M102.428 4.61833C99.4078 4.61833 97.613 6.39124 97.4817 8.60191H100.196C100.24 7.68263 100.918 6.85089 102.253 6.85089C103.501 6.85089 104.223 7.48564 104.223 8.40492C104.223 8.86457 103.939 9.21477 103.391 9.21477H101.531C99.1232 9.21477 97.5035 10.528 97.5035 12.6949C97.5035 14.5773 98.97 16 101.115 16C102.625 16 103.851 15.3215 104.223 14.2927V15.8249H107.244V8.73324C107.244 6.23803 105.208 4.61833 102.428 4.61833ZM101.881 13.7893C101.027 13.7893 100.415 13.2859 100.415 12.5636C100.415 11.71 101.071 11.1409 101.991 11.1409H104.223V11.2941C104.223 12.6949 103.369 13.7893 101.881 13.7893Z" fill="white"/>
<path d="M109.507 15.8249H112.55V0H109.507V15.8249Z" fill="white"/>
</g>
</g>
</g>
<defs>
<filter id="filter0_f_572_12615" x="0.924561" y="16.5034" width="51.4615" height="27.3213" filterUnits="userSpaceOnUse" color-interpolation-filters="sRGB">
<feFlood flood-opacity="0" result="BackgroundImageFix"/>
<feBlend mode="normal" in="SourceGraphic" in2="BackgroundImageFix" result="shape"/>
<feGaussianBlur stdDeviation="3" result="effect1_foregroundBlur_572_12615"/>
</filter>
</defs>
</svg>
