<svg width="35" height="35" viewBox="0 0 35 35" fill="none" xmlns="http://www.w3.org/2000/svg">
<g id="Tweet-Replies/Buton">
<rect x="0.424561" y="0.395752" width="34" height="34" rx="17" fill="black"/>
<path id="Vector" d="M27.2331 20.309C26.9897 20.0648 26.5939 20.0648 26.3497 20.309L24.4997 22.159V13.6257C24.4997 11.9023 23.0972 10.5007 21.3747 10.5007H16.4997C16.1547 10.5007 15.8747 10.7807 15.8747 11.1257C15.8747 11.4707 16.1547 11.7507 16.4997 11.7507H21.3747C22.4081 11.7507 23.2497 12.5923 23.2497 13.6257V22.159L21.3997 20.309C21.1556 20.0648 20.7597 20.0648 20.5164 20.309C20.2731 20.5532 20.2714 20.949 20.5164 21.1923L23.4331 24.109C23.5539 24.2315 23.7139 24.2923 23.8747 24.2923C24.0356 24.2923 24.1939 24.2323 24.3164 24.109L27.2331 21.1923C27.4781 20.949 27.4781 20.5532 27.2331 20.309ZM18.3497 23.0423H13.4747C12.4414 23.0423 11.5997 22.2007 11.5997 21.1673V12.634L13.4497 14.484C13.5731 14.6065 13.7331 14.6673 13.8931 14.6673C14.0531 14.6673 14.2131 14.6065 14.3347 14.484C14.5789 14.2398 14.5789 13.844 14.3347 13.6007L11.4181 10.684C11.1739 10.439 10.7781 10.439 10.5347 10.684L7.61808 13.6007C7.37308 13.844 7.37308 14.2398 7.61808 14.484C7.86308 14.7282 8.25724 14.7282 8.50141 14.484L10.3514 12.634V21.1673C10.3514 22.8907 11.7539 24.2923 13.4764 24.2923H18.3514C18.6964 24.2923 18.9764 24.0123 18.9764 23.6673C18.9764 23.3223 18.6956 23.0423 18.3514 23.0423H18.3497Z" fill="#8800FF"/>
</g>
</svg>
