<svg width="21" height="21" viewBox="0 0 21 21" fill="none" xmlns="http://www.w3.org/2000/svg">
<g id="Icons/Reply">
<g id="Group">
<path id="Vector" d="M12.129 2.26444L8.67232 2.2561H8.67065C5.02565 2.2561 2.17065 5.11194 2.17065 8.75777C2.17065 12.1728 4.82565 14.7628 8.39149 14.8994V18.0894C8.39149 18.1794 8.42815 18.3278 8.49149 18.4253C8.60982 18.6128 8.81149 18.7144 9.01815 18.7144C9.13315 18.7144 9.24899 18.6828 9.35316 18.6161C9.57315 18.4761 14.7473 15.1661 16.0932 14.0278C17.6782 12.6861 18.6265 10.7194 18.629 8.76777V8.7536C18.624 5.11444 15.7707 2.26444 12.129 2.2636V2.26444ZM15.2848 13.0744C14.3398 13.8744 11.2332 15.9119 9.64149 16.9436V14.2878C9.64149 13.9428 9.36232 13.6628 9.01649 13.6628H8.68649C5.63649 13.6628 3.42149 11.5994 3.42149 8.75777C3.42149 5.81277 5.72815 3.5061 8.67149 3.5061L12.1273 3.51444H12.129C15.0723 3.51444 17.379 5.81944 17.3807 8.7611C17.3782 10.3528 16.5957 11.9644 15.2857 13.0744H15.2848Z" fill="#8800FF"/>
</g>
</g>
</svg>
