<svg width="41" height="40" viewBox="0 0 41 40" fill="none" xmlns="http://www.w3.org/2000/svg">
<g id="Group 19406">
<path id="Vector" d="M40.4026 34.4444C40.4026 37.5133 37.9159 40 34.847 40H5.95814C2.89037 40 0.402588 37.5133 0.402588 34.4444V5.55556C0.402588 2.48667 2.89037 0 5.95814 0H34.847C37.9159 0 40.4026 2.48667 40.4026 5.55556V34.4444Z" fill="#101B60"/>
<path id="Vector_2" d="M10.2991 15.7902H14.5089V30.1035H10.2991V15.7902ZM12.3913 14.1063H12.3678C11.1116 14.1063 10.2991 13.17 10.2991 12.0005C10.2991 10.8058 11.1368 9.89648 12.4158 9.89648C13.6964 9.89648 14.4853 10.8058 14.5089 12.0005C14.5089 13.1692 13.6964 14.1063 12.3913 14.1063ZM30.5061 30.1035H26.2963V22.4425C26.2963 20.5919 25.2649 19.329 23.6088 19.329C22.345 19.329 21.6613 20.181 21.3296 21.0045C21.2083 21.2991 21.2446 22.1142 21.2446 22.5259V30.1035H17.0348V15.7902H21.2446V17.9928C21.8516 17.0531 22.8022 15.7902 25.2338 15.7902C28.2463 15.7902 30.5053 17.6846 30.5053 21.9146L30.5061 30.1035Z" fill="#01FFFC"/>
</g>
</svg>
