<svg width="41" height="40" viewBox="0 0 41 40" fill="none" xmlns="http://www.w3.org/2000/svg">
<g id="Group 19402">
<path id="Vector" d="M40.4026 34.4444C40.4026 37.5133 37.9159 40 34.847 40H5.95814C2.89037 40 0.402588 37.5133 0.402588 34.4444V5.55556C0.402588 2.48667 2.89037 0 5.95814 0H34.847C37.9159 0 40.4026 2.48667 40.4026 5.55556V34.4444Z" fill="#101B60"/>
<path id="Vector_2" d="M29.6994 12.6014C27.4726 10.8119 23.9514 10.5087 23.8026 10.4959C23.5674 10.4757 23.3442 10.6089 23.2477 10.8238C23.244 10.8312 23.0474 11.4017 22.8573 11.952C25.4451 12.4048 27.2034 13.4099 27.2972 13.465C27.7363 13.7204 27.8833 14.2835 27.627 14.7217C27.457 15.0138 27.1492 15.1774 26.8332 15.1774C26.6761 15.1774 26.5181 15.1379 26.373 15.0533C26.3473 15.0377 23.7677 13.5697 20.4045 13.5697C17.0403 13.5697 14.4598 15.0386 14.4341 15.0533C13.9959 15.3078 13.4337 15.1581 13.1792 14.719C12.9247 14.2817 13.0726 13.7204 13.5099 13.465C13.6036 13.4099 15.3684 12.4012 17.9636 11.9492C17.7633 11.3925 17.5612 10.8312 17.5575 10.8238C17.4611 10.608 17.2378 10.472 17.0027 10.4959C16.8538 10.5078 13.3326 10.811 11.0764 12.6253C9.89682 13.7149 7.54138 20.0848 7.54138 25.5922C7.54138 25.6896 7.56619 25.7842 7.61487 25.8687C9.24182 28.7258 13.6771 29.4735 14.6876 29.5057C14.6941 29.5066 14.6996 29.5066 14.7051 29.5066C14.8833 29.5066 15.0514 29.4212 15.1571 29.2769L16.2503 27.7961C13.8526 27.2182 12.5848 26.3097 12.5086 26.2536C12.1007 25.9532 12.0125 25.3782 12.3129 24.9694C12.6124 24.5624 13.1856 24.4724 13.5935 24.7709C13.6275 24.793 15.9673 26.4309 20.4026 26.4309C24.8554 26.4309 27.1888 24.7865 27.2117 24.77C27.6196 24.4742 28.1947 24.5633 28.4932 24.973C28.7909 25.3809 28.7045 25.9523 28.2985 26.2518C28.2222 26.3078 26.9609 27.2146 24.5687 27.7924L25.6482 29.276C25.7538 29.4212 25.9219 29.5057 26.1001 29.5057C26.1066 29.5057 26.1121 29.5057 26.1176 29.5048C27.129 29.4726 31.5643 28.7248 33.1904 25.8678C33.239 25.7833 33.2638 25.6887 33.2638 25.5913C33.2638 20.0848 30.9084 13.7149 29.6994 12.6014ZM16.728 23.675C15.7129 23.675 14.8907 22.647 14.8907 21.3783C14.8907 20.1096 15.7129 19.0817 16.728 19.0817C17.7431 19.0817 18.5653 20.1096 18.5653 21.3783C18.5653 22.647 17.7431 23.675 16.728 23.675ZM24.0773 23.675C23.0621 23.675 22.2399 22.647 22.2399 21.3783C22.2399 20.1096 23.0621 19.0817 24.0773 19.0817C25.0924 19.0817 25.9146 20.1096 25.9146 21.3783C25.9146 22.647 25.0924 23.675 24.0773 23.675Z" fill="#01FFFC"/>
</g>
</svg>
