<svg width="41" height="40" viewBox="0 0 41 40" fill="none" xmlns="http://www.w3.org/2000/svg">
<g id="Group 19405">
<path id="Vector" d="M40.4026 34.4444C40.4026 37.5133 37.9159 40 34.847 40H5.95814C2.89037 40 0.402588 37.5133 0.402588 34.4444V5.55556C0.402588 2.48667 2.89037 0 5.95814 0H34.847C37.9159 0 40.4026 2.48667 40.4026 5.55556V34.4444Z" fill="#101B60"/>
<path id="Vector_2" d="M22.1968 20.9307H26.2271L26.8598 16.8365H22.196V14.5988C22.196 12.898 22.7517 11.3899 24.3427 11.3899H26.8992V7.81697C26.45 7.75632 25.5 7.62354 23.705 7.62354C19.9567 7.62354 17.7592 9.60301 17.7592 14.1128V16.8365H13.906V20.9307H17.7592V32.1837C18.5223 32.2985 19.2952 32.3763 20.0887 32.3763C20.8059 32.3763 21.5059 32.3108 22.1968 32.2173V20.9307Z" fill="#01FFFC"/>
</g>
</svg>
