<svg width="41" height="40" viewBox="0 0 41 40" fill="none" xmlns="http://www.w3.org/2000/svg">
<g id="Group 19403">
<path id="Vector" d="M40.4026 34.4444C40.4026 37.5133 37.9159 40 34.847 40H5.95814C2.89037 40 0.402588 37.5133 0.402588 34.4444V5.55556C0.402588 2.48667 2.89037 0 5.95814 0H34.847C37.9159 0 40.4026 2.48667 40.4026 5.55556V34.4444Z" fill="#101B60"/>
<path id="Vector_2" d="M32.5649 12.4565C31.6696 12.8541 30.7079 13.1216 29.6985 13.2423C30.7294 12.6249 31.5199 11.6472 31.8923 10.4816C30.9287 11.0532 29.8603 11.4685 28.7227 11.6931C27.8124 10.7229 26.5158 10.1167 25.0807 10.1167C22.3246 10.1167 20.0906 12.3517 20.0906 15.1068C20.0906 15.4979 20.1355 15.8796 20.2197 16.2435C16.0725 16.0358 12.3959 14.0487 9.93354 11.0288C9.50507 11.766 9.25903 12.623 9.25903 13.5389C9.25903 15.2696 10.1394 16.7973 11.4781 17.6917C10.6604 17.6655 9.89051 17.441 9.21786 17.0677C9.21786 17.0892 9.21786 17.1088 9.21786 17.1304C9.21786 19.5487 10.9374 21.5657 13.221 22.0232C12.8028 22.1373 12.3612 22.1981 11.9056 22.1981C11.5848 22.1981 11.2713 22.1663 10.9673 22.1092C11.6025 24.0916 13.4455 25.5352 15.629 25.5754C13.9217 26.9141 11.77 27.7121 9.43116 27.7121C9.02889 27.7121 8.63129 27.6887 8.24023 27.642C10.449 29.0574 13.0713 29.8835 15.8901 29.8835C25.0695 29.8835 30.0876 22.2795 30.0876 15.685C30.0876 15.4689 30.083 15.2537 30.0736 15.0395C31.0494 14.335 31.896 13.4565 32.5649 12.4565Z" fill="#01FFFC"/>
</g>
</svg>
