<svg width="41" height="40" viewBox="0 0 41 40" fill="none" xmlns="http://www.w3.org/2000/svg">
<g id="Group 19404">
<path id="Vector" d="M40.4026 34.4444C40.4026 37.5133 37.9159 40 34.847 40H5.95814C2.89037 40 0.402588 37.5133 0.402588 34.4444V5.55556C0.402588 2.48667 2.89037 0 5.95814 0H34.847C37.9159 0 40.4026 2.48667 40.4026 5.55556V34.4444Z" fill="#101B60"/>
<path id="Vector_2" d="M15.8205 9.00732C12.2854 9.00732 9.40979 11.8856 9.40979 15.4216V24.5822C9.40979 28.1173 12.288 30.9929 15.824 30.9929H24.9847C28.5198 30.9929 31.3954 28.1147 31.3954 24.5787V15.418C31.3954 11.8829 28.5171 9.00732 24.9811 9.00732H15.8205ZM26.815 12.6716C27.3207 12.6716 27.7311 13.082 27.7311 13.5877C27.7311 14.0933 27.3207 14.5037 26.815 14.5037C26.3094 14.5037 25.899 14.0933 25.899 13.5877C25.899 13.082 26.3094 12.6716 26.815 12.6716ZM20.4026 14.5037C23.4338 14.5037 25.899 16.9689 25.899 20.0001C25.899 23.0314 23.4338 25.4965 20.4026 25.4965C17.3713 25.4965 14.9062 23.0314 14.9062 20.0001C14.9062 16.9689 17.3713 14.5037 20.4026 14.5037ZM20.4026 16.3359C19.4308 16.3359 18.4987 16.7219 17.8116 17.4091C17.1244 18.0963 16.7383 19.0283 16.7383 20.0001C16.7383 20.9719 17.1244 21.904 17.8116 22.5911C18.4987 23.2783 19.4308 23.6644 20.4026 23.6644C21.3744 23.6644 22.3064 23.2783 22.9936 22.5911C23.6808 21.904 24.0668 20.9719 24.0668 20.0001C24.0668 19.0283 23.6808 18.0963 22.9936 17.4091C22.3064 16.7219 21.3744 16.3359 20.4026 16.3359V16.3359Z" fill="#01FFFC"/>
</g>
</svg>
