<svg width="58" height="58" viewBox="0 0 58 58" fill="none" xmlns="http://www.w3.org/2000/svg">
<g id="Group 15881">
<rect id="Rectangle 2549" x="0.848633" y="2.72852" width="55" height="55" rx="11.3963" transform="rotate(-2.23994 0.848633 2.72852)" fill="url(#paint0_linear_589_1082)"/>
<path id="Fill 10 Copy" fill-rule="evenodd" clip-rule="evenodd" d="M18.0281 46.163C20.493 46.0638 22.4121 43.9793 22.3181 41.5033L21.3734 17.3533C21.366 17.1627 21.5137 17.0023 21.7034 16.9948C21.8932 16.9874 22.053 17.1359 22.0604 17.3264L23.005 41.4764C23.1019 43.9534 25.1797 45.8833 27.6458 45.7868C30.1119 45.6903 32.0326 43.6041 31.9357 41.1271L30.9911 16.9771C30.9836 16.7865 31.1314 16.6261 31.3211 16.6187C31.5108 16.6112 31.6706 16.7597 31.6781 16.9502L32.6227 41.1003C32.7196 43.5772 34.7973 45.5071 37.2634 45.4106C39.7296 45.3141 41.6502 43.2279 41.5533 40.7509L40.6087 16.6009C40.6013 16.4104 40.749 16.2499 40.9387 16.2425C41.1284 16.2351 41.2883 16.3835 41.2957 16.574L42.4157 45.2091L46.5376 45.0479L45.4176 16.4128C45.3207 13.9358 43.2429 12.006 40.7768 12.1025C38.3107 12.1989 36.39 14.2851 36.4869 16.7621L37.4315 40.9122C37.439 41.1027 37.2912 41.2632 37.1015 41.2706C36.9118 41.278 36.752 41.1296 36.7445 40.939L35.7999 16.789C35.703 14.312 33.6253 12.3822 31.1592 12.4787C28.693 12.5751 26.7724 14.6613 26.8692 17.1383L27.8139 41.2883C27.8213 41.4789 27.6736 41.6394 27.4839 41.6468C27.2941 41.6542 27.1343 41.5058 27.1269 41.3152L26.1823 17.1652C26.0854 14.6882 24.0076 12.7584 21.5415 12.8548C19.0754 12.9513 17.1547 15.0375 17.2516 17.5145L18.1962 41.6645C18.2037 41.8551 18.0559 42.0156 17.8662 42.023C17.6765 42.0304 17.5167 41.882 17.5092 41.6914L16.3892 13.0564L12.2673 13.2176L13.3874 41.8526C13.487 44.3284 15.5631 46.2566 18.0281 46.163Z" fill="#01FFFC"/>
</g>
<defs>
<linearGradient id="paint0_linear_589_1082" x1="48.8376" y1="42.7584" x2="48.8376" y2="-24.2856" gradientUnits="userSpaceOnUse">
<stop stop-color="#101B5F"/>
<stop offset="1" stop-color="#7447A3"/>
</linearGradient>
</defs>
</svg>
