<svg width="35" height="35" viewBox="0 0 35 35" fill="none" xmlns="http://www.w3.org/2000/svg">
<g id="Tweet-Replies/Buton">
<rect x="0.424561" y="0.395752" width="34" height="34" rx="17" fill="black"/>
<g id="Group 15889">
<path id="Vector" d="M22.034 13.5395L17.8673 9.37282C17.6231 9.12866 17.2273 9.12866 16.984 9.37282L12.8173 13.5395C12.5723 13.7837 12.5723 14.1795 12.8173 14.4228C13.0623 14.6662 13.4565 14.6678 13.7006 14.4228L16.8006 11.3228V19.8145C16.8006 20.1595 17.0806 20.4395 17.4256 20.4395C17.7706 20.4395 18.0506 20.1595 18.0506 19.8145V11.3228L21.1506 14.4228C21.2723 14.5453 21.4323 14.6062 21.5923 14.6062C21.7523 14.6062 21.9123 14.5462 22.034 14.4228C22.2781 14.1787 22.2781 13.7837 22.034 13.5395Z" fill="#8800FF"/>
<path id="Vector_2" d="M23.8492 25.6007H11.0025C9.9492 25.6007 9.09253 24.744 9.09253 23.6907V18.9807C9.09253 18.6357 9.37253 18.3557 9.71753 18.3557C10.0625 18.3557 10.3425 18.6357 10.3425 18.9807V23.6907C10.3425 24.0549 10.6384 24.3507 11.0025 24.3507H23.8492C24.2134 24.3507 24.5092 24.0549 24.5092 23.6907V18.9807C24.5092 18.6357 24.7892 18.3557 25.1342 18.3557C25.4792 18.3557 25.7592 18.6357 25.7592 18.9807V23.6907C25.7592 24.744 24.9025 25.6007 23.8492 25.6007Z" fill="#8800FF"/>
</g>
</g>
</svg>
