<svg width="15" height="15" viewBox="0 0 15 15" fill="none" xmlns="http://www.w3.org/2000/svg">
<path id="Vector" d="M6.13349 0C5.49599 0 4.97964 0.516346 4.97964 1.15385V5.76923V6.34615V10.0962C3.50733 9.34673 2.83868 9.23077 2.09503 9.23077C1.2319 9.23077 0.36988 9.56383 0.365385 10.6652L2.96041 11.8269L4.78133 13.6478C5.64671 14.5132 6.82144 15 8.04567 15H11.9027C13.1771 15 14.2104 13.9667 14.2104 12.6923V6.92308C14.2104 6.61706 14.0888 6.32357 13.8725 6.10718C13.6561 5.8908 13.3626 5.76923 13.0566 5.76923C12.8379 5.76956 12.6238 5.83201 12.4393 5.94932C12.2548 6.06662 12.1074 6.23394 12.0143 6.43179C11.9413 6.38206 11.9027 6.34615 11.9027 6.34615C11.9027 6.04013 11.7812 5.74665 11.5648 5.53026C11.3484 5.31387 11.0549 5.19231 10.7489 5.19231C10.4429 5.19231 10.1494 5.31387 9.93298 5.53026C9.71659 5.74665 9.59503 6.04013 9.59503 6.34615V5.76923C9.59503 5.13173 9.07868 4.61538 8.44118 4.61538C7.80368 4.61538 7.28733 5.13173 7.28733 5.76923V1.15385C7.28733 0.516346 6.77099 0 6.13349 0ZM0.365385 10.6652H0.364258V10.6731C0.364258 10.6702 0.365373 10.6681 0.365385 10.6652Z" fill="#01FFFC"/>
</svg>
