<svg width="11" height="15" viewBox="0 0 11 15" fill="none" xmlns="http://www.w3.org/2000/svg">
<path id="Vector" d="M5.56759 0C2.60892 0 0.210449 2.41802 0.210449 5.40082C0.210449 8.46077 3.58086 12.9774 4.97524 14.7141C5.28137 15.0953 5.85382 15.0953 6.15994 14.7141C7.55433 12.9774 10.9247 8.46077 10.9247 5.40082C10.9247 2.41802 8.52627 0 5.56759 0ZM5.56759 7.32968C4.5107 7.32968 3.65433 6.46632 3.65433 5.40082C3.65433 4.33531 4.5107 3.47195 5.56759 3.47195C6.62448 3.47195 7.48086 4.33531 7.48086 5.40082C7.48086 6.46632 6.62448 7.32968 5.56759 7.32968Z" fill="#4A3586"/>
</svg>
