<svg width="35" height="35" viewBox="0 0 35 35" fill="none" xmlns="http://www.w3.org/2000/svg">
<g id="Tweet-Replies/Buton">
<rect x="0.424561" y="0.395752" width="34" height="34" rx="17" fill="black"/>
<path id="Vector" d="M17.4246 25.2766H17.4129C15.2604 25.2366 9.04956 19.6249 9.04956 14.3099C9.04956 11.7566 11.1537 9.51489 13.5521 9.51489C15.4604 9.51489 16.7437 10.8316 17.4237 11.7899C18.1021 10.8332 19.3854 9.51489 21.2946 9.51489C23.6946 9.51489 25.7979 11.7566 25.7979 14.3107C25.7979 19.6241 19.5862 25.2357 17.4337 25.2749H17.4246V25.2766ZM13.5529 10.7657C11.8196 10.7657 10.3004 12.4224 10.3004 14.3116C10.3004 19.0949 16.1621 23.9749 17.4254 24.0266C18.6904 23.9749 24.5504 19.0957 24.5504 14.3116C24.5504 12.4224 23.0312 10.7657 21.2979 10.7657C19.1912 10.7657 18.0146 13.2124 18.0046 13.2366C17.8129 13.7049 17.0412 13.7049 16.8487 13.2366C16.8371 13.2116 15.6612 10.7657 13.5537 10.7657H13.5529Z" fill="#8800FF"/>
</g>
</svg>
